<?xml version="1.0" encoding="utf-8"?>

<!DOCTYPE svg PUBLIC "-//W3C//DTD SVG 1.1//EN" "http://www.w3.org/Graphics/SVG/1.1/DTD/svg11.dtd">
<svg version="1.1" id="Layer_1" xmlns="http://www.w3.org/2000/svg" xmlns:xlink="http://www.w3.org/1999/xlink" x="0px" y="0px"
	 viewBox="0 0 1591.158 1699.858" enable-background="new 0 0 1591.158 1699.858" xml:space="preserve">
<g>
	<path d="M1544.421,1649.929c-55.512-26.27-257.99-152.745-292.701-346.809c144.773-131.753,235.646-321.703,235.646-532.876
		c0-397.819-322.496-720.315-720.315-720.315S46.736,372.425,46.736,770.244s322.496,720.315,720.315,720.315
		c101.726,0,198.525-21.092,286.269-59.133h0C1190.734,1565.7,1299.361,1590.704,1544.421,1649.929z"/>
	<path fill="#FFFFFF" enable-background="new    " d="M1193.39,544.472c-24.343-94.788-100.899-154.815-206.219-166.198
		c-9.155-0.989-18.058-1.469-26.739-1.469c-91.551,0-156.69,53.463-193.932,126.534c-38.906-76.261-105.318-125.724-202.15-125.722
		c-6.408,0-12.957,0.217-19.632,0.657c-96.308,6.348-179.041,63.939-205.107,176.203
		c-46.888,201.946,175.045,408.381,426.89,609.207C1034.332,964.221,1243.289,738.771,1193.39,544.472z"/>
</g>
</svg>
